<svg enable-background="new 0 0 94.37 122.88" viewBox="0 0 94.37 122.88" xmlns="http://www.w3.org/2000/svg"><path clip-rule="evenodd" d="m85.82 83.99v-14.36c.61-2.61 1.76-3.95 3.05-4.19 4.48-.84 3.76 17.55-3.05 18.55zm-2.86-18.07-6.04.66c.31 1.11.47 2.28.47 3.49 0 3.63-1.47 6.92-3.85 9.3s-5.67 3.85-9.3 3.85-6.92-1.47-9.3-3.85-3.85-5.67-3.85-9.3c0-.35.01-.7.04-1.04 0-.07-.25-.22-.3-.27-1.26-1.08-2.56-1.55-3.76-1.48s-2.38.68-3.4 1.78h-.01c-.06.06-.14.15-.23.27-.03.04-.07.08-.11.11.01.21.02.42.02.63 0 3.63-1.47 6.92-3.85 9.3s-5.67 3.85-9.3 3.85-6.92-1.47-9.3-3.85c-2.42-2.37-3.89-5.66-3.89-9.29 0-1.2.16-2.37.46-3.48l-6.1-.76v25.36c1.9 9.11 4.24 9.87 10.07 15.58l10.12 9.9c1.83 1.51 3.89 2.39 6.08 2.91 3.85.9 16.77 1.19 20.38.02 2.2-.71 4.27-2.01 6.19-4.03l7.35-7.14c7.1-6.89 11.92-9.86 11.41-21.27zm-52.8-9c3.63 0 6.92 1.47 9.3 3.85 1.44 1.44 2.56 3.22 3.2 5.21 1.27-.93 2.7-1.47 4.19-1.55 1.65-.1 3.33.35 4.92 1.39.66-1.92 1.75-3.64 3.15-5.05 2.38-2.38 5.67-3.85 9.3-3.85s6.92 1.47 9.3 3.85c.9.9 1.67 1.93 2.28 3.06l7.15-.78v-11.8c-24.08-17.25-38.9-31.53-58.97-18.82-7.14 4.52-9.36 13.79-12.62 18.96v11.58c.07 0 .14 0 .21.01l6.99.87c.61-1.14 1.39-2.17 2.29-3.08 2.38-2.37 5.67-3.85 9.31-3.85zm1.73-7.93c.97-.04 1.78.71 1.82 1.67.04.97-.71 1.78-1.67 1.82-2.68.12-4.97.67-6.89 1.6-1.87.9-3.39 2.19-4.6 3.82-.58.78-1.67.94-2.45.36s-.94-1.67-.36-2.45c1.55-2.09 3.5-3.73 5.89-4.89 2.33-1.12 5.08-1.78 8.26-1.93zm32.06 3.15c-.97 0-1.75-.79-1.74-1.76 0-.97.79-1.75 1.76-1.74 2.9.01 5.54.56 7.92 1.67 2.4 1.13 4.5 2.82 6.28 5.13.59.77.45 1.86-.32 2.46-.76.59-1.86.45-2.46-.32-1.43-1.86-3.1-3.21-4.99-4.1-1.9-.89-4.06-1.33-6.45-1.34zm-3.07 42.57c-1.5.51-3.05.94-4.65 1.29-1.64.45-3.15.73-4.49.76-1.53.03-2.84-.26-3.89-.95-.32-.21-.61-.44-.86-.69-.25.24-.54.47-.86.69-1.05.7-2.36.98-3.89.95-1.34-.03-2.85-.3-4.49-.76-1.6-.35-3.14-.78-4.65-1.29-1.5-.51-2.96-1.1-4.39-1.76-.69-.32-.97-1.09-.62-1.73.21-.38.59-.62 1.01-.69.76-.12 1.37-.2 1.94-.28l.05-.01c1.84-.25 3.25-.45 4.98-1.14.49-.19.96-.41 1.44-.63 2.75-1.27 5.76-2.66 8.77-.28.26.21.5.42.71.65.21-.23.45-.44.71-.65 3-2.39 6.02-1 8.77.28.48.22.95.44 1.44.63 1.72.69 3.14.89 4.98 1.14l.05.01c.57.08 1.18.16 1.94.28.42.07.81.31 1.01.69.35.63.07 1.41-.62 1.73-1.43.67-2.89 1.26-4.39 1.76zm-17.52-11.72c-.61-.51-.69-1.41-.18-2.01.51-.61 1.41-.69 2.01-.18.71.6 1.4.91 2.05.92.66.01 1.38-.29 2.15-.93.61-.5 1.51-.41 2.01.2s.41 1.51-.2 2.01c-1.32 1.08-2.65 1.59-4 1.58-1.33-.02-2.62-.56-3.84-1.59zm-4.48 18.86c-.73-.39-1.01-1.3-.62-2.03s1.3-1.01 2.03-.62c2.32 1.23 4.59 1.85 6.83 1.86s4.48-.61 6.73-1.85c.73-.4 1.64-.13 2.04.59.4.73.13 1.64-.59 2.04-2.69 1.49-5.42 2.22-8.18 2.21-2.76 0-5.51-.74-8.24-2.2zm-30.33-17.86v-14.36c-.61-2.61-1.76-3.95-3.05-4.19-4.49-.84-3.76 17.55 3.05 18.55zm.41 2.47c-.25.04-.51.05-.77.01-4.72-.69-7.26-6.47-7.87-12-.17-1.52-.2-3.03-.09-4.39.11-1.45.38-2.79.82-3.87.94-2.36 2.56-3.67 4.91-3.24 1.12.21 2.15.79 3.01 1.77v-1.92l-1.92-1.08c-.53-5.23-1.88-11.66-2.73-17.61-.14-.96-.22-1.89-.27-2.81-2.07.42-3.75-1.51-4.05-6.92v-8.72c1.26-10.43 6.12-14.62 14.09-13.42 7.59-7.93 18.3-12.36 33.04-12.24 16.43-.32 30.43 3.51 40.6 13.92 5.35 5.32 7.62 13.57 6.25 25.31.06 2.23-.07 4.56-.43 7.02-.76 5.29-1.74 10.91-2.04 15.04l-2.55 1.59c2.06-.15 3.5 1.13 4.37 3.31.43 1.09.7 2.42.82 3.87.1 1.36.07 2.86-.09 4.39-.61 5.53-3.15 11.31-7.87 12-.21.03-.41.03-.61.01v.7.09c.45 11.06-3.58 14.85-9.81 20.72-.77.73-1.59 1.49-2.36 2.24l-7.31 7.1c-1.09 1.14-2.23 2.09-3.42 2.86-1.21.78-2.47 1.38-3.79 1.8-1.95.63-5.96.89-10.07.88-4.6-.01-9.45-.33-11.65-.85-1.26-.3-2.49-.7-3.66-1.25-1.18-.55-2.33-1.26-3.43-2.17-.06-.05-.11-.1-.17-.15l-10.12-9.9c-.87-.85-1.74-1.66-2.52-2.39-4.41-4.11-6.5-6.06-8.25-14.47-.04-.17-.05-.34-.05-.51h-.01z" fill-rule="evenodd"/></svg>